<svg width="12" height="19" viewBox="0 0 12 19" fill="none" xmlns="http://www.w3.org/2000/svg">
<path d="M0 3.5C0 2.67157 0.671573 2 1.5 2V2C2.32843 2 3 2.67157 3 3.5V9H0V3.5Z" fill="#FFB08E"/>
<path d="M3 2.5C3 1.67157 3.67157 1 4.5 1V1C5.32843 1 6 1.67157 6 2.5V9H3V2.5Z" fill="#FFB08E"/>
<path d="M6 1.5C6 0.671573 6.67157 0 7.5 0V0C8.32843 0 9 0.671573 9 1.5V9H6V1.5Z" fill="#FFB08E"/>
<path d="M9 3.5C9 2.67157 9.67157 2 10.5 2V2C11.3284 2 12 2.67157 12 3.5V9H9V3.5Z" fill="#FFB08E"/>
<path d="M0 9H12L10 13H2L0 9Z" fill="#FFB08E"/>
<rect x="1.05" y="13.05" width="9.9" height="1.9" fill="white" stroke="black" stroke-width="0.1"/>
<rect x="0.25" y="15.25" width="11.5" height="3.5" fill="#42A2A2" stroke="#69BEAF" stroke-width="0.5"/>
</svg>
